<?xml version="1.0" standalone="no"?>
<!DOCTYPE svg PUBLIC "-//W3C//DTD SVG 1.0//EN" "http://www.w3.org/TR/2001/REC-SVG-20010904/DTD/svg10.dtd">
<svg xmlns="http://www.w3.org/2000/svg" xmlns:xlink="http://www.w3.org/1999/xlink" id="body_1" width="345" height="345">

<g transform="matrix(1.15 0 0 1.15 0 0)">
	<g transform="matrix(0.13333333 0 -0 -0.13333334 0 300)">
	</g>
    <path transform="matrix(0.13333333 0 -0 -0.13333334 0 300)"  d="M892 1794C 861 1772 862 1717 895 1685C 938 1641 990 1662 990 1723C 989 1783 934 1824 892 1794z" stroke="none" fill="#000000" fill-rule="nonzero" />
	<g transform="matrix(0.13333333 0 -0 -0.13333334 0 300)">
	</g>
    <path transform="matrix(0.13333333 0 -0 -0.13333334 0 300)"  d="M640 1700C 640 1689 646 1680 653 1680C 672 1680 680 1690 673 1706C 665 1727 640 1723 640 1700z" stroke="none" fill="#000000" fill-rule="nonzero" />
	<g transform="matrix(0.13333333 0 -0 -0.13333334 0 300)">
	</g>
    <path transform="matrix(0.13333333 0 -0 -0.13333334 0 300)"  d="M1457 1675C 1449 1668 1439 1641 1436 1616C 1427 1555 1363 1458 1317 1437C 1227 1394 1134 1436 1074 1545C 1068 1556 1051 1572 1037 1580C 1013 1593 1009 1593 993 1577C 984 1568 967 1534 955 1503C 930 1431 888 1402 831 1416C 804 1423 791 1433 780 1458C 768 1483 760 1490 740 1488C 714 1485 713 1483 726 1409C 731 1378 728 1370 700 1347C 660 1313 631 1313 529 1347C 459 1370 445 1379 423 1412C 402 1443 392 1450 364 1450C 339 1450 326 1443 314 1425C 276 1367 318 1336 465 1315C 577 1299 622 1280 628 1246C 632 1226 603 1190 584 1190C 558 1190 522 1167 516 1147C 506 1108 531 1076 585 1059C 642 1041 647 1026 607 996C 583 978 566 975 500 977C 428 980 420 978 406 958C 384 926 386 894 412 876C 447 852 476 857 518 895C 575 946 605 955 656 935C 726 908 735 886 735 735C 735 664 728 559 721 502C 705 388 710 373 755 384L755 384L782 391L774 458C 759 571 764 790 782 825C 806 870 834 891 881 897C 936 905 980 881 1011 827C 1041 772 1047 654 1030 433C 1016 251 1019 240 1074 240C 1135 240 1143 273 1108 373C 1089 427 1086 456 1086 590C 1085 735 1087 748 1110 795C 1124 823 1147 852 1163 860C 1187 873 1193 873 1217 860C 1278 825 1309 741 1315 593C 1319 478 1328 460 1364 495C 1376 508 1377 516 1368 538C 1333 625 1338 715 1380 760C 1396 777 1415 790 1424 790C 1454 790 1480 752 1480 710C 1480 683 1484 670 1494 670C 1504 670 1507 687 1507 738C 1507 775 1508 833 1509 867L1509 867L1511 929L1571 980C 1603 1009 1630 1040 1630 1050C 1630 1061 1608 1095 1580 1126C 1553 1157 1530 1189 1530 1195C 1530 1202 1537 1227 1545 1250C 1568 1316 1565 1328 1523 1339C 1502 1345 1469 1350 1450 1350C 1334 1350 1349 1470 1479 1580C 1532 1625 1541 1648 1514 1674C 1495 1694 1476 1694 1457 1675z" stroke="none" fill="#000000" fill-rule="nonzero" />
	<g transform="matrix(0.13333333 0 -0 -0.13333334 0 300)">
	</g>
    <path transform="matrix(0.13333333 0 -0 -0.13333334 0 300)"  d="M614 1596C 604 1570 615 1545 638 1542C 665 1538 676 1561 660 1589C 648 1613 622 1617 614 1596z" stroke="none" fill="#000000" fill-rule="nonzero" />
	<g transform="matrix(0.13333333 0 -0 -0.13333334 0 300)">
	</g>
    <path transform="matrix(0.13333333 0 -0 -0.13333334 0 300)"  d="M1570 1415C 1554 1396 1566 1363 1591 1357C 1621 1349 1654 1384 1640 1410C 1627 1433 1588 1436 1570 1415z" stroke="none" fill="#000000" fill-rule="nonzero" />
	<g transform="matrix(0.13333333 0 -0 -0.13333334 0 300)">
	</g>
    <path transform="matrix(0.13333333 0 -0 -0.13333334 0 300)"  d="M1650 1115C 1640 1103 1640 1097 1650 1085C 1675 1055 1717 1078 1699 1112C 1687 1134 1667 1135 1650 1115z" stroke="none" fill="#000000" fill-rule="nonzero" />
	<g transform="matrix(0.13333333 0 -0 -0.13333334 0 300)">
	</g>
    <path transform="matrix(0.13333333 0 -0 -0.13333334 0 300)"  d="M310 1071C 310 1047 325 1036 346 1044C 358 1048 359 1054 350 1070C 336 1096 310 1096 310 1071z" stroke="none" fill="#000000" fill-rule="nonzero" />
	<g transform="matrix(0.13333333 0 -0 -0.13333334 0 300)">
	</g>
    <path transform="matrix(0.13333333 0 -0 -0.13333334 0 300)"  d="M1711 991C 1686 966 1694 932 1728 923C 1776 911 1809 960 1775 994C 1753 1015 1734 1014 1711 991z" stroke="none" fill="#000000" fill-rule="nonzero" />
	<g transform="matrix(0.13333333 0 -0 -0.13333334 0 300)">
	</g>
    <path transform="matrix(0.13333333 0 -0 -0.13333334 0 300)"  d="M374 655C 352 622 363 582 397 569C 432 556 466 571 482 604C 510 666 412 713 374 655z" stroke="none" fill="#000000" fill-rule="nonzero" />
	<g transform="matrix(0.13333333 0 -0 -0.13333334 0 300)">
	</g>
    <path transform="matrix(0.13333333 0 -0 -0.13333334 0 300)"  d="M1516 514C 1497 496 1496 486 1510 459C 1521 440 1555 434 1576 448C 1595 461 1599 487 1584 509C 1566 534 1538 536 1516 514z" stroke="none" fill="#000000" fill-rule="nonzero" />
</g>
</svg>